<mxfile host="app.diagrams.net" modified="2020-12-30T10:54:01.992Z" agent="5.0 (Macintosh; Intel Mac OS X 10_15_4) AppleWebKit/537.36 (KHTML, like Gecko) Chrome/87.0.4280.88 Safari/537.36" etag="DB4MPOHobRZ7dgjEwf_g" version="14.1.3" type="github">
  <diagram id="Suvvtk3SrT86c9OOcFG-" name="第 1 页">
    <mxGraphModel dx="2253" dy="664" grid="1" gridSize="10" guides="1" tooltips="1" connect="1" arrows="1" fold="1" page="1" pageScale="1" pageWidth="827" pageHeight="1169" math="0" shadow="0">
      <root>
        <mxCell id="0" />
        <mxCell id="1" parent="0" />
        <mxCell id="6RXEAnAoLVdcE6I8OSiL-1" value="LVS" style="rounded=1;whiteSpace=wrap;html=1;" vertex="1" parent="1">
          <mxGeometry x="130" y="120" width="70" height="80" as="geometry" />
        </mxCell>
        <mxCell id="6RXEAnAoLVdcE6I8OSiL-2" value="云阵" style="rounded=1;whiteSpace=wrap;html=1;" vertex="1" parent="1">
          <mxGeometry x="320" y="270" width="70" height="80" as="geometry" />
        </mxCell>
        <mxCell id="6RXEAnAoLVdcE6I8OSiL-3" value="waf" style="rounded=1;whiteSpace=wrap;html=1;" vertex="1" parent="1">
          <mxGeometry x="520" y="270" width="70" height="80" as="geometry" />
        </mxCell>
        <mxCell id="6RXEAnAoLVdcE6I8OSiL-4" value="原站" style="rounded=1;whiteSpace=wrap;html=1;" vertex="1" parent="1">
          <mxGeometry x="720" y="130" width="70" height="80" as="geometry" />
        </mxCell>
        <mxCell id="6RXEAnAoLVdcE6I8OSiL-5" value="" style="endArrow=none;html=1;" edge="1" parent="1">
          <mxGeometry width="50" height="50" relative="1" as="geometry">
            <mxPoint x="250" y="740" as="sourcePoint" />
            <mxPoint x="250" y="30" as="targetPoint" />
          </mxGeometry>
        </mxCell>
        <mxCell id="6RXEAnAoLVdcE6I8OSiL-6" value="&lt;h1&gt;waf资产配置&lt;/h1&gt;&lt;div&gt;主机名:端口&amp;nbsp; www.test.com:80&lt;/div&gt;&lt;div&gt;回源IP:端口&amp;nbsp; 10.4.0.10:8080&lt;/div&gt;" style="text;html=1;strokeColor=none;fillColor=none;spacing=5;spacingTop=-20;whiteSpace=wrap;overflow=hidden;rounded=0;" vertex="1" parent="1">
          <mxGeometry x="480" y="410" width="190" height="120" as="geometry" />
        </mxCell>
        <mxCell id="6RXEAnAoLVdcE6I8OSiL-7" style="edgeStyle=orthogonalEdgeStyle;rounded=0;orthogonalLoop=1;jettySize=auto;html=1;exitX=0.5;exitY=1;exitDx=0;exitDy=0;" edge="1" parent="1" source="6RXEAnAoLVdcE6I8OSiL-6" target="6RXEAnAoLVdcE6I8OSiL-6">
          <mxGeometry relative="1" as="geometry" />
        </mxCell>
        <mxCell id="6RXEAnAoLVdcE6I8OSiL-8" value="" style="endArrow=classic;html=1;entryX=0;entryY=0.5;entryDx=0;entryDy=0;" edge="1" parent="1" target="6RXEAnAoLVdcE6I8OSiL-1">
          <mxGeometry width="50" height="50" relative="1" as="geometry">
            <mxPoint x="-10" y="160" as="sourcePoint" />
            <mxPoint x="520" y="320" as="targetPoint" />
          </mxGeometry>
        </mxCell>
        <mxCell id="6RXEAnAoLVdcE6I8OSiL-9" value="www.test.com:80" style="text;html=1;align=center;verticalAlign=middle;resizable=0;points=[];autosize=1;" vertex="1" parent="1">
          <mxGeometry x="-5" y="130" width="110" height="20" as="geometry" />
        </mxCell>
        <mxCell id="6RXEAnAoLVdcE6I8OSiL-10" value="" style="endArrow=classic;html=1;exitX=1;exitY=0.5;exitDx=0;exitDy=0;entryX=0;entryY=0.5;entryDx=0;entryDy=0;" edge="1" parent="1" source="6RXEAnAoLVdcE6I8OSiL-1" target="6RXEAnAoLVdcE6I8OSiL-2">
          <mxGeometry width="50" height="50" relative="1" as="geometry">
            <mxPoint x="470" y="370" as="sourcePoint" />
            <mxPoint x="520" y="320" as="targetPoint" />
          </mxGeometry>
        </mxCell>
        <mxCell id="6RXEAnAoLVdcE6I8OSiL-11" value="经过lvs&amp;nbsp; 10.4.0.10:8080 进入云阵" style="text;html=1;align=center;verticalAlign=middle;resizable=0;points=[];autosize=1;" vertex="1" parent="1">
          <mxGeometry x="165" y="220" width="190" height="20" as="geometry" />
        </mxCell>
        <mxCell id="6RXEAnAoLVdcE6I8OSiL-12" value="" style="endArrow=classic;html=1;exitX=1;exitY=0.5;exitDx=0;exitDy=0;entryX=0;entryY=0.5;entryDx=0;entryDy=0;" edge="1" parent="1" source="6RXEAnAoLVdcE6I8OSiL-2" target="6RXEAnAoLVdcE6I8OSiL-3">
          <mxGeometry width="50" height="50" relative="1" as="geometry">
            <mxPoint x="470" y="370" as="sourcePoint" />
            <mxPoint x="520" y="320" as="targetPoint" />
          </mxGeometry>
        </mxCell>
        <mxCell id="6RXEAnAoLVdcE6I8OSiL-13" value="云阵把流量导入waf" style="text;html=1;align=center;verticalAlign=middle;resizable=0;points=[];autosize=1;" vertex="1" parent="1">
          <mxGeometry x="400" y="290" width="120" height="20" as="geometry" />
        </mxCell>
        <mxCell id="6RXEAnAoLVdcE6I8OSiL-14" value="" style="endArrow=classic;html=1;exitX=1;exitY=0.5;exitDx=0;exitDy=0;entryX=0;entryY=0.5;entryDx=0;entryDy=0;" edge="1" parent="1" source="6RXEAnAoLVdcE6I8OSiL-3" target="6RXEAnAoLVdcE6I8OSiL-4">
          <mxGeometry width="50" height="50" relative="1" as="geometry">
            <mxPoint x="470" y="370" as="sourcePoint" />
            <mxPoint x="520" y="320" as="targetPoint" />
          </mxGeometry>
        </mxCell>
        <mxCell id="6RXEAnAoLVdcE6I8OSiL-15" value="waf访问原站8080" style="text;html=1;align=center;verticalAlign=middle;resizable=0;points=[];autosize=1;" vertex="1" parent="1">
          <mxGeometry x="586" y="230" width="110" height="20" as="geometry" />
        </mxCell>
        <mxCell id="6RXEAnAoLVdcE6I8OSiL-16" value="&lt;font style=&quot;font-size: 36px&quot;&gt;外网&lt;/font&gt;" style="text;html=1;align=center;verticalAlign=middle;resizable=0;points=[];autosize=1;" vertex="1" parent="1">
          <mxGeometry x="75" y="35" width="90" height="30" as="geometry" />
        </mxCell>
        <mxCell id="6RXEAnAoLVdcE6I8OSiL-17" value="&lt;font style=&quot;font-size: 36px&quot;&gt;内网&lt;/font&gt;" style="text;html=1;align=center;verticalAlign=middle;resizable=0;points=[];autosize=1;" vertex="1" parent="1">
          <mxGeometry x="495" y="35" width="90" height="30" as="geometry" />
        </mxCell>
        <mxCell id="6RXEAnAoLVdcE6I8OSiL-19" value="原站" style="rounded=1;whiteSpace=wrap;html=1;" vertex="1" parent="1">
          <mxGeometry x="730" y="600" width="70" height="80" as="geometry" />
        </mxCell>
        <mxCell id="6RXEAnAoLVdcE6I8OSiL-20" value="waf" style="rounded=1;whiteSpace=wrap;html=1;" vertex="1" parent="1">
          <mxGeometry x="520" y="600" width="70" height="80" as="geometry" />
        </mxCell>
        <mxCell id="6RXEAnAoLVdcE6I8OSiL-21" value="云阵" style="rounded=1;whiteSpace=wrap;html=1;" vertex="1" parent="1">
          <mxGeometry x="320" y="600" width="70" height="80" as="geometry" />
        </mxCell>
        <mxCell id="6RXEAnAoLVdcE6I8OSiL-22" value="" style="endArrow=classic;html=1;" edge="1" parent="1" target="6RXEAnAoLVdcE6I8OSiL-21">
          <mxGeometry width="50" height="50" relative="1" as="geometry">
            <mxPoint x="200" y="639" as="sourcePoint" />
            <mxPoint x="520" y="390" as="targetPoint" />
          </mxGeometry>
        </mxCell>
        <mxCell id="6RXEAnAoLVdcE6I8OSiL-23" value="www.test.com:80" style="text;html=1;align=center;verticalAlign=middle;resizable=0;points=[];autosize=1;" vertex="1" parent="1">
          <mxGeometry x="215" y="620" width="110" height="20" as="geometry" />
        </mxCell>
        <mxCell id="6RXEAnAoLVdcE6I8OSiL-24" value="10.4.0.10:80" style="text;html=1;align=center;verticalAlign=middle;resizable=0;points=[];autosize=1;" vertex="1" parent="1">
          <mxGeometry x="230" y="650" width="80" height="20" as="geometry" />
        </mxCell>
        <mxCell id="6RXEAnAoLVdcE6I8OSiL-25" value="" style="endArrow=classic;html=1;exitX=1;exitY=0.5;exitDx=0;exitDy=0;entryX=0;entryY=0.5;entryDx=0;entryDy=0;" edge="1" parent="1" source="6RXEAnAoLVdcE6I8OSiL-21" target="6RXEAnAoLVdcE6I8OSiL-20">
          <mxGeometry width="50" height="50" relative="1" as="geometry">
            <mxPoint x="400" y="640" as="sourcePoint" />
            <mxPoint x="450" y="590" as="targetPoint" />
          </mxGeometry>
        </mxCell>
        <mxCell id="6RXEAnAoLVdcE6I8OSiL-26" value="导入waf" style="text;html=1;align=center;verticalAlign=middle;resizable=0;points=[];autosize=1;" vertex="1" parent="1">
          <mxGeometry x="410" y="620" width="60" height="20" as="geometry" />
        </mxCell>
        <mxCell id="6RXEAnAoLVdcE6I8OSiL-27" value="" style="endArrow=classic;html=1;exitX=1;exitY=0.5;exitDx=0;exitDy=0;entryX=0;entryY=0.5;entryDx=0;entryDy=0;" edge="1" parent="1" source="6RXEAnAoLVdcE6I8OSiL-20" target="6RXEAnAoLVdcE6I8OSiL-19">
          <mxGeometry width="50" height="50" relative="1" as="geometry">
            <mxPoint x="470" y="500" as="sourcePoint" />
            <mxPoint x="520" y="450" as="targetPoint" />
          </mxGeometry>
        </mxCell>
        <mxCell id="6RXEAnAoLVdcE6I8OSiL-28" value="waf访问原站" style="text;html=1;align=center;verticalAlign=middle;resizable=0;points=[];autosize=1;" vertex="1" parent="1">
          <mxGeometry x="600" y="620" width="80" height="20" as="geometry" />
        </mxCell>
        <mxCell id="6RXEAnAoLVdcE6I8OSiL-30" value="&lt;font style=&quot;font-size: 18px&quot;&gt;用户环境&lt;/font&gt;" style="text;html=1;align=center;verticalAlign=middle;resizable=0;points=[];autosize=1;" vertex="1" parent="1">
          <mxGeometry x="-145" y="290" width="90" height="20" as="geometry" />
        </mxCell>
        <mxCell id="6RXEAnAoLVdcE6I8OSiL-31" value="" style="endArrow=none;html=1;" edge="1" parent="1">
          <mxGeometry width="50" height="50" relative="1" as="geometry">
            <mxPoint x="-270" y="400" as="sourcePoint" />
            <mxPoint x="820" y="400" as="targetPoint" />
          </mxGeometry>
        </mxCell>
        <mxCell id="6RXEAnAoLVdcE6I8OSiL-32" value="&lt;font style=&quot;font-size: 18px&quot;&gt;云阵测试环境&lt;/font&gt;" style="text;html=1;align=center;verticalAlign=middle;resizable=0;points=[];autosize=1;" vertex="1" parent="1">
          <mxGeometry x="-170" y="500" width="120" height="20" as="geometry" />
        </mxCell>
      </root>
    </mxGraphModel>
  </diagram>
</mxfile>
